<svg width="1600" height="900" viewBox="0 0 1600 900" fill="none" xmlns="http://www.w3.org/2000/svg">
  <defs>
    <linearGradient id="bg" x1="120" y1="60" x2="1480" y2="840" gradientUnits="userSpaceOnUse">
      <stop stop-color="#152A35"/>
      <stop offset="1" stop-color="#253C43"/>
    </linearGradient>
    <linearGradient id="panel" x1="1010" y1="125" x2="1450" y2="750" gradientUnits="userSpaceOnUse">
      <stop stop-color="#F8F4EA"/>
      <stop offset="1" stop-color="#E7ECEA"/>
    </linearGradient>
    <linearGradient id="amber" x1="0" y1="0" x2="1" y2="1">
      <stop stop-color="#F2C878"/>
      <stop offset="1" stop-color="#C9823C"/>
    </linearGradient>
    <filter id="shadow" x="875" y="72" width="610" height="790" filterUnits="userSpaceOnUse" color-interpolation-filters="sRGB">
      <feDropShadow dx="0" dy="28" stdDeviation="25" flood-color="#071418" flood-opacity="0.38"/>
    </filter>
    <pattern id="grid" width="48" height="48" patternUnits="userSpaceOnUse">
      <path d="M48 0H0V48" stroke="#98B2AE" stroke-opacity="0.11"/>
    </pattern>
  </defs>
  <rect width="1600" height="900" rx="34" fill="url(#bg)"/>
  <rect x="0" y="0" width="1600" height="900" rx="34" fill="url(#grid)"/>
  <path d="M0 706C247 595 432 786 712 691C858 642 928 558 1040 558" stroke="#E6B766" stroke-opacity="0.26" stroke-width="2"/>
  <circle cx="111" cy="113" r="30" stroke="#E6B766" stroke-opacity="0.55" stroke-width="2"/>
  <circle cx="111" cy="113" r="8" fill="#E6B766"/>
  <text x="170" y="119" fill="#E6B766" font-family="Arial, sans-serif" font-size="20" font-weight="700" letter-spacing="4">ASSET KEEPER / 01</text>
  <text x="108" y="355" fill="#F8F6EE" font-family="Arial, 'PingFang SC', sans-serif" font-size="112" font-weight="800" letter-spacing="6">物迹</text>
  <text x="112" y="414" fill="#C3D0CC" font-family="Arial, 'PingFang SC', sans-serif" font-size="30" font-weight="600" letter-spacing="3">家庭资产 · 门店设备 · 云端协同</text>
  <rect x="112" y="482" width="280" height="2" fill="#E6B766"/>
  <text x="112" y="532" fill="#9EB0AC" font-family="Arial, 'PingFang SC', sans-serif" font-size="22">一套资产模型，连接家庭版与商户版。</text>
  <g opacity="0.88">
    <rect x="110" y="668" width="190" height="78" rx="12" fill="#294852" stroke="#54716F"/>
    <text x="136" y="700" fill="#9FBDB5" font-family="Arial, sans-serif" font-size="13" letter-spacing="2">SURFACES</text>
    <text x="136" y="730" fill="#F4C674" font-family="Arial, sans-serif" font-size="20" font-weight="700">WEB · APP · API</text>
    <rect x="320" y="668" width="190" height="78" rx="12" fill="#294852" stroke="#54716F"/>
    <text x="346" y="700" fill="#9FBDB5" font-family="Arial, sans-serif" font-size="13" letter-spacing="2">STATUS</text>
    <text x="346" y="730" fill="#F4C674" font-family="Arial, sans-serif" font-size="20" font-weight="700">SYNCED / LIVE</text>
  </g>
  <g filter="url(#shadow)">
    <rect x="930" y="104" width="490" height="690" rx="24" fill="url(#panel)"/>
    <rect x="930" y="104" width="490" height="70" rx="24" fill="#FDFBF6"/>
    <circle cx="976" cy="139" r="10" fill="#D68C44"/>
    <text x="1002" y="147" fill="#1C3036" font-family="Arial, 'PingFang SC', sans-serif" font-size="22" font-weight="700">资产总览</text>
    <rect x="1294" y="126" width="88" height="28" rx="14" fill="#EAF2EE"/>
    <circle cx="1312" cy="140" r="5" fill="#4B9C78"/>
    <text x="1324" y="146" fill="#38725C" font-family="Arial, sans-serif" font-size="12" font-weight="700">已同步</text>
    <text x="975" y="237" fill="#6A7A7C" font-family="Arial, 'PingFang SC', sans-serif" font-size="16">在管资产</text>
    <text x="975" y="300" fill="#1C3036" font-family="Arial, sans-serif" font-size="66" font-weight="800">286</text>
    <text x="1126" y="296" fill="#6B7C7C" font-family="Arial, sans-serif" font-size="16">件</text>
    <path d="M976 351H1374" stroke="#D4DEDA"/>
    <text x="976" y="394" fill="#6A7A7C" font-family="Arial, 'PingFang SC', sans-serif" font-size="15">需要关注</text>
    <rect x="976" y="420" width="398" height="70" rx="12" fill="#FFF7E8"/>
    <circle cx="1012" cy="455" r="18" fill="#F3D196"/>
    <path d="M1012 445V458L1020 463" stroke="#8B5A26" stroke-width="3" stroke-linecap="round"/>
    <text x="1050" y="452" fill="#32494D" font-family="Arial, 'PingFang SC', sans-serif" font-size="17" font-weight="700">8 项保养提醒</text>
    <text x="1050" y="476" fill="#8B7B63" font-family="Arial, 'PingFang SC', sans-serif" font-size="13">本周需要处理</text>
    <text x="976" y="553" fill="#6A7A7C" font-family="Arial, 'PingFang SC', sans-serif" font-size="15">设备状态</text>
    <rect x="976" y="579" width="118" height="106" rx="12" fill="#EAF2EE"/>
    <rect x="1116" y="579" width="118" height="106" rx="12" fill="#EDF1F2"/>
    <rect x="1256" y="579" width="118" height="106" rx="12" fill="#FFF4E4"/>
    <text x="1000" y="618" fill="#4B9C78" font-family="Arial, sans-serif" font-size="30" font-weight="800">94%</text>
    <text x="1000" y="650" fill="#61736F" font-family="Arial, 'PingFang SC', sans-serif" font-size="14">正常</text>
    <text x="1140" y="618" fill="#546B76" font-family="Arial, sans-serif" font-size="30" font-weight="800">18</text>
    <text x="1140" y="650" fill="#61736F" font-family="Arial, 'PingFang SC', sans-serif" font-size="14">门店</text>
    <text x="1280" y="618" fill="#B87535" font-family="Arial, sans-serif" font-size="30" font-weight="800">06</text>
    <text x="1280" y="650" fill="#94704B" font-family="Arial, 'PingFang SC', sans-serif" font-size="14">待处理</text>
    <text x="976" y="744" fill="#A0ADAA" font-family="Arial, sans-serif" font-size="12" letter-spacing="2">ONE CLOUD / TWO EDITIONS</text>
  </g>
  <text x="1426" y="844" text-anchor="end" fill="#819590" font-family="Arial, sans-serif" font-size="14" letter-spacing="3">HUOYANBO PRODUCT LAB</text>
</svg>
